<?xml version="1.0" encoding="UTF-8" standalone="no"?>
<!-- Generator: Adobe Illustrator 19.2.1, SVG Export Plug-In . SVG Version: 6.00 Build 0)  -->

<svg
   xmlns:dc="http://purl.org/dc/elements/1.1/"
   xmlns:cc="http://creativecommons.org/ns#"
   xmlns:rdf="http://www.w3.org/1999/02/22-rdf-syntax-ns#"
   xmlns:svg="http://www.w3.org/2000/svg"
   xmlns="http://www.w3.org/2000/svg"
   xmlns:sodipodi="http://sodipodi.sourceforge.net/DTD/sodipodi-0.dtd"
   xmlns:inkscape="http://www.inkscape.org/namespaces/inkscape"
   version="1.1"
   x="0px"
   y="0px"
   viewBox="0 0 47.927254 36.09026"
   xml:space="preserve"
   id="svg2"
   inkscape:version="0.91 r13725"
   sodipodi:docname="gonimo-Weihnachts-Logo_2_app-12.svg"
   width="47.927254"
   height="36.09026"><metadata
     id="metadata68"><rdf:RDF><cc:Work
         rdf:about=""><dc:format>image/svg+xml</dc:format><dc:type
           rdf:resource="http://purl.org/dc/dcmitype/StillImage" /><dc:title></dc:title></cc:Work></rdf:RDF></metadata><defs
     id="defs66" /><sodipodi:namedview
     pagecolor="#ffffff"
     bordercolor="#666666"
     borderopacity="1"
     objecttolerance="10"
     gridtolerance="10"
     guidetolerance="10"
     inkscape:pageopacity="0"
     inkscape:pageshadow="2"
     inkscape:window-width="1676"
     inkscape:window-height="1028"
     id="namedview64"
     showgrid="false"
     fit-margin-top="0"
     fit-margin-left="0"
     fit-margin-right="0"
     fit-margin-bottom="0"
     inkscape:zoom="3.9333333"
     inkscape:cx="-18.330508"
     inkscape:cy="17.45"
     inkscape:window-x="0"
     inkscape:window-y="18"
     inkscape:window-maximized="0"
     inkscape:current-layer="svg2" /><style
     type="text/css"
     id="style4">
	.st0{display:none;}
	.st1{fill:none;stroke:#000000;stroke-miterlimit:10;}
	.st2{fill:#C1272D;stroke:#000000;stroke-miterlimit:10;}
	.st3{fill:#FFFFFF;stroke:#000000;stroke-miterlimit:10;}
	.st4{fill:#E6CAD4;}
	.st5{fill:#1D1D1B;}
	.st6{fill:#C8C8C8;}
	.st7{fill:#656564;}
	.st8{fill:#FFFFFF;}
	.st9{fill:#C1272D;stroke:#000000;stroke-width:1.1534;stroke-miterlimit:10;}
	.st10{fill:#FFFFFF;stroke:#000000;stroke-width:1.1534;stroke-miterlimit:10;}
	.st11{fill:none;stroke:#000000;stroke-width:1.1534;stroke-miterlimit:10;}
	.st12{fill:#FFFFFF;stroke:#000000;stroke-width:1.0931;stroke-miterlimit:10;}
	.st13{fill:#A3182B;stroke:#000000;stroke-miterlimit:10;}
	.st14{fill:#A3182B;stroke:#000000;stroke-width:1.305;stroke-miterlimit:10;}
	.st15{fill:#FFFFFF;stroke:#000000;stroke-width:1.305;stroke-miterlimit:10;}
	.st16{fill:none;stroke:#000000;stroke-width:1.305;stroke-miterlimit:10;}
	.st17{fill:#A3182B;stroke:#000000;stroke-width:1.3302;stroke-miterlimit:10;}
	.st18{fill:#FFFFFF;stroke:#000000;stroke-width:1.3302;stroke-miterlimit:10;}
	.st19{fill:none;stroke:#000000;stroke-width:1.3302;stroke-miterlimit:10;}
	.st20{fill:#A3182B;stroke:#000000;stroke-width:1.1745;stroke-miterlimit:10;}
	.st21{fill:#FFFFFF;stroke:#000000;stroke-width:1.1745;stroke-miterlimit:10;}
	.st22{fill:none;stroke:#000000;stroke-width:1.1745;stroke-miterlimit:10;}
	.st23{fill:#A3182B;}
</style><g
     id="Ebene_2"
     class="st0"
     style="display:none"
     transform="translate(-6,-11.35974)" /><g
     id="Ebene_1"
     transform="translate(-6,-11.35974)" /><g
     id="logo"
     transform="translate(-6,-11.35974)" /><g
     id="Ebene_4"
     transform="translate(-6,-11.35974)"><g
       id="g10"><path
         class="st4"
         d="M 43.2,40.5 C 36.1,43.4 27.9,39.8 25,32.4 22.1,25 25.5,16.8 32.6,14 c 4.3,-1.7 9.2,-1.2 13,1.5 -7.2,-5.8 -17.7,-4.8 -23.5,2.4 -5.8,7.2 -4.8,17.7 2.4,23.5 7.2,5.8 17.7,4.8 23.5,-2.4 2.1,-2.5 3.3,-5.6 3.7,-8.8 -1,4.6 -4.1,8.5 -8.5,10.3 z"
         id="path12"
         inkscape:connector-curvature="0"
         style="fill:#e6cad4" /><path
         class="st5"
         d="m 43.1,40.2 c -7,2.7 -14.9,-0.7 -17.8,-7.6 -2.9,-6.7 0,-14.8 6.6,-18 4.4,-2.1 9.7,-1.7 13.8,1 0.3,0.2 0.2,-0.3 0,-0.4 -7.2,-5.9 -17.8,-4.9 -23.7,2.3 -2.1,2.5 -3.4,5.6 -3.7,8.9 -0.6,5.6 1.6,11.2 5.9,14.9 7.1,6.1 17.7,5.3 23.8,-1.8 2.2,-2.6 3.6,-5.8 4,-9.2 0,-0.2 -0.3,-0.6 -0.4,-0.3 -1.1,4.6 -4.2,8.4 -8.5,10.2 -0.2,0.1 0.1,0.6 0.3,0.5 4.4,-1.8 7.5,-5.7 8.4,-10.4 L 51.4,30 c -1,9.1 -9.2,15.8 -18.3,14.8 -2.4,-0.3 -4.7,-1 -6.7,-2.2 -5,-3 -8,-8.4 -8,-14.2 0.1,-9.2 7.6,-16.5 16.8,-16.4 3.8,0 7.4,1.3 10.3,3.7 l 0,-0.4 C 41.7,12.7 37,12.1 32.7,13.7 c -3.5,1.4 -6.4,4.1 -7.8,7.6 -3,6.9 0.1,15.2 6.7,18.7 3.6,1.9 8,2.2 11.8,0.7 0.2,-0.1 -0.1,-0.5 -0.3,-0.5 z"
         id="path14"
         inkscape:connector-curvature="0"
         style="fill:#1d1d1b" /><path
         class="st6"
         d="m 28,25.6 c -1.8,2.2 -2.7,5 -2.6,7.9 0.3,4.7 2.1,5.5 4.7,7 0,0 1.3,2.5 3.8,2.5 1.1,0 2.5,-0.7 2.9,-1.2 0,0 1.3,1 2,0.9 1.2,0 2.4,-0.7 3.1,-1.7 0.2,0.3 0.7,0.4 1,0.1 0.1,-0.1 0.2,-0.2 0.2,-0.4 0,0 0.5,0.8 1.1,0.4 0.4,-0.3 0.6,-0.7 0.7,-1.2 0,0 0.3,0.6 0.5,0.6 0.2,0 0.9,-0.1 1,-1.6 0.2,-1.5 -1.9,-1.6 -2.1,-1.6 0.4,-1.4 0.5,-2.9 0.3,-4.4 0.6,0.2 1.2,-0.2 1.4,-0.8 0,0 0,-0.1 0,-0.1 0.3,-2.2 0.3,-4.4 0.1,-6.6 -0.3,-1.8 -1,-5.3 -2.8,-6.3 -1.9,-1 -3.6,-1.7 -4.5,-1.4 -0.9,0.3 -1.5,0.9 -2.1,1.8 -0.6,0.9 -1.7,2.2 -1.9,3.3 -0.9,-0.2 -1.8,-0.2 -2.7,-0.1 l -4.4,-9.4 c 0,0 -7.4,2.2 -5.6,5.6 1.8,3.3 2.3,4 2.8,4.5 0.4,0.7 2.6,2.4 3.1,2.2 z"
         id="path16"
         inkscape:connector-curvature="0"
         style="fill:#c8c8c8" /><path
         class="st5"
         d="m 30.1,31.7 c -0.6,-0.6 -1.5,-0.8 -2.4,-0.5 -0.3,0.1 -0.5,0.2 -0.7,0.4 -0.1,0.1 -0.1,0 0,0 l -0.4,0 c -0.1,0 -0.3,0.1 -0.3,0.3 0,0.1 0.1,0.3 0.3,0.3 0.3,0 0.6,0 0.8,-0.2 0.7,-0.5 1.7,-0.5 2.3,0.2 0.1,0.1 0.3,0.1 0.4,-0.1 0,-0.2 0,-0.3 0,-0.4 l 0,0 z"
         id="path18"
         inkscape:connector-curvature="0"
         style="fill:#1d1d1b" /><path
         class="st5"
         d="m 38.1,30.4 c 0.3,-0.4 0.7,-0.6 1.2,-0.7 0.6,-0.1 1,0.2 1.4,0.5 0.2,0.1 0.5,0.1 0.7,0.1 0.1,0 0.3,-0.1 0.3,-0.3 0,-0.1 -0.1,-0.3 -0.3,-0.3 -0.2,0 -0.4,0 -0.5,-0.1 -0.2,-0.1 -0.5,-0.3 -0.7,-0.4 -0.4,-0.1 -0.9,-0.2 -1.3,0 -0.5,0.2 -0.9,0.5 -1.2,0.9 -0.3,0.3 0.2,0.6 0.4,0.3 l 0,0 0,0 z"
         id="path20"
         inkscape:connector-curvature="0"
         style="fill:#1d1d1b" /><circle
         class="st5"
         cx="33.200001"
         cy="39"
         r="0.1"
         id="circle22"
         style="fill:#1d1d1b" /><circle
         class="st5"
         cx="32.900002"
         cy="40"
         r="0.1"
         id="circle24"
         style="fill:#1d1d1b" /><circle
         class="st5"
         cx="33.5"
         cy="40.799999"
         r="0.1"
         id="circle26"
         style="fill:#1d1d1b" /><circle
         class="st5"
         cx="39.299999"
         cy="38.400002"
         r="0.1"
         id="circle28"
         style="fill:#1d1d1b" /><circle
         class="st5"
         cx="39.700001"
         cy="39.200001"
         r="0.1"
         id="circle30"
         style="fill:#1d1d1b" /><circle
         class="st5"
         cx="39.200001"
         cy="40.099998"
         r="0.1"
         id="circle32"
         style="fill:#1d1d1b" /><path
         class="st4"
         d="m 34.6,38.5 c 0.1,0.3 0.1,0.5 0.2,0.8 0.5,0.2 1.1,0.4 1.6,0.6 0,0 1.3,-0.8 1.4,-1.1 0,-0.3 -0.1,-0.6 -0.2,-0.8 -0.5,-0.5 -1.2,-0.8 -1.9,-0.7 -0.6,0 -1.1,0.6 -1.1,1.2 0,0 0,0 0,0 z"
         id="path34"
         inkscape:connector-curvature="0"
         style="fill:#e6cad4" /><path
         class="st4"
         d="m 28.6,25.4 c 0.4,-0.6 0.9,-1 1.5,-1.3 -0.3,-0.6 -0.5,-1.2 -0.6,-1.9 -0.3,-1.2 -4.3,-9 -4.3,-9 0,0 -4.8,0.2 -3.8,2.1 1,1.9 2,5.2 3.2,6.6 1.2,1.2 2.6,2.4 4,3.5 z"
         id="path36"
         inkscape:connector-curvature="0"
         style="fill:#e6cad4" /><path
         class="st5"
         d="m 30.4,24 c -0.7,-0.9 -0.7,-2.4 -1.1,-3.5 -0.5,-1.5 -1.2,-3 -2,-4.5 -1.4,-2.7 -6,0.3 -4.6,3.3 0.6,1.4 1.5,2.6 2.6,3.7 0.9,0.8 2.1,1.5 3,2.4 0.1,0.1 0.6,0 0.5,-0.1 C 28,24.4 26.9,23.8 26,23 c -1.2,-1.1 -2.1,-2.5 -2.8,-4 -1.4,-3 3.2,-3.8 4,-2.1 0.7,1.3 1.2,2.7 1.7,4 0.3,1 0.3,2.3 1,3.1 0.1,0.3 0.6,0.1 0.5,0 l 0,0 0,0 z"
         id="path38"
         inkscape:connector-curvature="0"
         style="fill:#1d1d1b" /><path
         class="st4"
         d="m 35.8,22.5 c 0,0 3.8,1.1 4.4,1.9 l -0.8,-4.3 -0.2,-1.4 c 0,0 -0.4,-0.3 -1.1,0.3 -0.7,0.6 -2.3,3.5 -2.3,3.5 z"
         id="path40"
         inkscape:connector-curvature="0"
         style="fill:#e6cad4" /><path
         class="st5"
         d="m 53.9,40.3 c -2.3,-0.8 -4.8,-1.2 -7.3,-1.3 -0.1,-0.3 -0.2,-0.5 -0.3,-0.7 -0.1,-0.1 -0.1,-0.1 -0.2,-0.2 -0.4,-0.4 -0.9,-0.6 -1.5,-0.6 0.2,-0.6 0.3,-1.2 0.3,-1.9 1.4,-0.5 2.9,-0.9 4.3,-1.2 0.2,0 0.1,-0.2 0,-0.2 -1.5,0.3 -2.9,0.7 -4.3,1.2 0,-0.6 0,-1.2 -0.1,-1.8 1.2,0.1 1.4,-1.1 1.5,-2.2 0.2,-2 0.2,-3.9 -0.1,-5.9 -0.3,-1.8 -0.7,-3.8 -1.8,-5.3 -0.6,-0.8 -1.6,-1.2 -2.5,-1.6 -0.9,-0.4 -2,-0.9 -3,-0.8 -1,0.1 -1.8,0.9 -2.4,1.7 -0.8,1.1 -1.7,2.2 -2.1,3.5 -0.4,-0.1 -0.9,-0.1 -1.3,-0.1 -0.4,0 -0.7,0 -1.1,0 -0.5,-2.3 -1.4,-4.5 -2.5,-6.6 -0.9,-1.6 -8.5,2.1 -6.7,5.3 0.5,0.9 1,1.7 1.7,2.4 0.6,0.6 1.2,1.1 1.9,1.5 0.3,0.2 0.6,0.4 1,0.6 -2.2,2.7 -2.8,6.7 -2,10 0.1,0.4 0.3,0.9 0.5,1.3 -2.4,-0.1 -4.7,0 -7.1,0.3 -0.2,0 -0.2,0.2 0,0.2 2.4,-0.3 4.8,-0.4 7.3,-0.3 0.4,0.7 0.9,1.4 1.6,1.9 -0.5,0.1 -1,0.2 -1.6,0.3 -0.2,0.1 -0.1,0.3 0.1,0.2 0.6,-0.2 1.2,-0.3 1.7,-0.4 0.1,0.1 0.3,0.2 0.4,0.3 0.4,0.3 1,0.5 1.5,0.8 -3.3,1.2 -6.5,3.4 -8,6.6 -0.1,0.2 0.2,0.2 0.3,0 1.5,-3.1 4.6,-5.4 7.9,-6.5 l 0,0.1 c 0.4,0.4 0.7,0.9 1.1,1.3 1.6,1.4 4.3,1.7 5.8,0 0.6,0.5 1.3,0.8 2.1,0.8 1.2,-0.1 2.2,-0.7 3,-1.6 0.4,0.3 0.9,0.2 1.2,-0.2 0,0 0,0 0,0 0.7,0.7 1.5,0.2 1.8,-0.7 0.2,0.2 0.5,0.3 0.7,0.2 0.7,-0.2 0.9,-1 1,-1.6 0,-0.1 0,-0.2 0,-0.4 2.4,0.1 4.7,0.5 7,1.3 0.1,0.4 0.3,0.3 0.2,0.3 z M 45,38 c 0.3,0.1 0.9,0.2 1,0.6 0,0.1 0.1,0.2 0.2,0.2 0,0 0,0.1 0,0.1 -1.5,0 -3,0.1 -4.5,0.4 0.2,-0.3 0.4,-0.6 0.6,-0.8 0.5,0 0.9,0.1 1.3,0.2 0.1,0 0.4,-0.1 0.2,-0.2 C 43.4,38.3 43,38.3 42.5,38.3 43.3,38 44.2,37.9 45,38 l 0,0 z m -3.1,-0.8 c 0.8,-0.6 1.7,-1.1 2.6,-1.4 -0.1,0.6 -0.2,1.1 -0.3,1.7 -0.7,0 -1.4,0.2 -2,0.6 l -0.2,0 c 0,-0.3 0,-0.6 -0.1,-0.9 l 0,0 z m -13.7,2.2 c -0.6,-0.4 -1,-0.8 -1.4,-1.4 -0.1,-0.1 -0.2,-0.3 -0.2,-0.4 0.7,0.1 1.4,0.2 2.2,0.3 0.3,0.1 0.7,0.1 1,0.2 -0.1,0.4 -0.1,0.8 0,1.2 -0.6,0 -1.1,0.1 -1.6,0.1 z m 0.7,0.4 -0.3,-0.2 c 0.4,0 0.8,0 1.2,0 0,0.3 0.1,0.6 0.2,0.8 -0.4,-0.2 -0.8,-0.4 -1.1,-0.6 z m 10,2.9 c -0.7,0 -1.4,-0.3 -1.9,-0.9 l -0.3,-1.6 c 0.1,-0.1 0.2,-0.1 0.3,-0.2 0.3,-0.2 0.9,-0.5 1.1,-0.9 0.3,-0.8 -0.6,-1.5 -1.2,-1.6 -0.9,-0.3 -2.5,0.1 -2.4,1.4 0,0.4 0.2,0.7 0.5,1 0.4,0.2 0.9,0.4 1.4,0.5 l 0,0 0.3,1.6 c -1,1.3 -3,1.4 -4.4,0.7 -0.7,-0.5 -1.4,-1.1 -1.9,-1.8 l 0,0 c 0.4,-0.1 0.8,-0.2 1.3,-0.3 0.2,0 0.1,-0.3 -0.1,-0.2 -0.4,0.1 -0.8,0.2 -1.2,0.3 -0.1,-0.3 -0.2,-0.6 -0.3,-1 0.3,0 0.6,0 0.9,0.1 0.2,0 0.3,-0.2 0.1,-0.2 -0.3,-0.1 -0.7,-0.1 -1,-0.1 0,-0.4 0,-0.8 0,-1.2 0.5,0.1 1,0.3 1.4,0.6 0.1,0.1 0.4,-0.1 0.2,-0.2 -0.5,-0.3 -1.1,-0.5 -1.6,-0.7 l 0,-0.1 c 0.2,-1.5 0.4,-2.9 0.6,-4.4 0.2,-1.4 0,-2.8 -0.7,-4 -0.4,-0.7 -0.9,-1.3 -1.5,-1.9 -0.1,-0.1 -0.3,0.1 -0.3,0.1 0.6,0.6 1.1,1.3 1.6,2.1 0.8,1.3 0.8,2.5 0.6,4 -0.2,1.4 -0.4,2.7 -0.5,4.1 -0.3,-0.1 -0.6,-0.1 -0.8,-0.2 -0.8,-0.2 -1.7,-0.3 -2.5,-0.4 -1.1,-2.2 -1,-5.1 -0.4,-7.3 0.4,-1.5 1.1,-2.9 2.1,-4 0.1,-0.1 0.1,-0.2 0,-0.3 0,-0.1 -0.1,-0.1 -0.2,-0.1 C 27.6,25.7 26.9,25 26.5,24.8 26,24.5 25.6,24.1 25.1,23.7 24.6,23.2 24.2,22.6 23.9,22 c -1.7,-2.8 0.6,-8.6 1.8,-7.5 1.4,1.2 2.9,0.4 3.8,2 1.1,2.1 1.9,4.3 2.5,6.6 0,0.1 0.1,0.2 0.3,0.2 0.7,-0.1 1.3,-0.1 2,0 0.2,0 0.4,0 0.7,0.1 1,0.2 1.9,0.6 2.8,0.9 0.3,0.1 0.3,-0.3 0.1,-0.4 -0.8,-0.3 -1.7,-0.6 -2.6,-0.9 0.3,-1.2 1.2,-2.2 1.9,-3.1 0.8,-1.2 1.7,-1.9 3.2,-1.6 1.2,0.3 2.7,0.9 3.6,1.7 0.7,0.8 1.3,1.8 1.5,2.9 0.5,1.8 0.8,3.8 0.7,5.7 0,1 -0.1,2 -0.1,2.9 -0.1,0.7 -0.2,1.6 -1.2,1.5 -0.2,-0.2 -0.4,-0.4 -0.5,-0.7 -0.5,-0.8 -1,-1.6 -1.4,-2.4 -1.3,-2.5 -2.3,-5.2 -3,-8 -0.2,-0.7 -0.3,-1.5 -0.4,-2.2 0,-0.2 0,-0.8 -0.1,-1 -0.2,-0.1 -0.4,-0.1 -0.6,0 -1.6,0.4 -2.5,2.7 -3.1,3.9 -0.1,0.1 0.3,0.1 0.3,0 0.5,-1.2 1.2,-2.3 2.1,-3.3 0.2,-0.2 0.7,-0.7 1,-0.5 0.1,0.1 0.2,1.8 0.2,2.1 0.1,0.8 0.3,1.6 0.5,2.3 0.4,1.5 0.9,2.9 1.5,4.3 0.8,1.8 1.7,3.6 2.8,5.3 0.1,0.1 0.2,0.2 0.3,0.3 0,0 0,0.1 0,0.1 0.1,0.7 0.2,1.5 0.1,2.3 -0.9,0.4 -1.8,0.9 -2.7,1.4 -0.6,-1.9 -1.7,-3.7 -3.2,-5 -0.1,-0.1 -0.3,0.1 -0.3,0.1 1.5,1.4 2.6,3.2 3.2,5.1 -0.3,0.3 -0.7,0.5 -1,0.8 -0.1,0.1 0.2,0.2 0.2,0.1 0.3,-0.2 0.5,-0.5 0.8,-0.7 0.1,0.3 0.2,0.6 0.2,0.9 l -0.1,0.1 c -0.4,0.1 -0.7,0.2 -1.1,0.3 -0.2,0.1 0,0.2 0.1,0.1 0.3,-0.1 0.5,-0.2 0.8,-0.3 -0.2,0.3 -0.3,0.5 -0.4,0.9 -0.2,0.1 -0.5,0.1 -0.7,0.2 -0.2,0.1 -0.1,0.2 0,0.1 0.2,-0.1 0.4,-0.1 0.7,-0.2 -0.2,0.6 0,1.2 0.5,1.7 -0.7,1 -1.6,1.5 -2.7,1.6 l 0,0 z m -1.6,-4.5 c 0.1,0.1 0.2,0.2 0.3,0.4 0.2,0.5 -0.1,0.7 -0.5,1 -0.2,0.1 -0.4,0.3 -0.6,0.4 l 0,0 c -0.1,-0.1 -0.3,-0.1 -0.4,-0.1 -0.3,-0.1 -0.6,-0.2 -0.9,-0.3 -0.2,-0.2 -0.3,-0.5 -0.4,-0.8 -0.1,-1.3 1.9,-1.1 2.5,-0.6 l 0,0 z M 36.5,40 m 8.6,0.1 c -0.1,-0.1 -0.4,-0.3 -0.4,0 -0.1,0.6 -0.8,1.6 -1.4,0.8 -0.1,-0.1 -0.2,-0.1 -0.3,-0.1 0,0 0,0 -0.1,0 -0.1,0.3 -0.5,0.4 -0.8,0.3 0,0 -0.1,0 -0.1,-0.1 l 0,0 c -0.5,-0.4 -0.7,-1.1 -0.4,-1.6 1.5,-0.3 3,-0.4 4.6,-0.4 0,0.9 -0.6,2.1 -1.1,1.1 l 0,0 z"
         id="path42"
         inkscape:connector-curvature="0"
         style="fill:#1d1d1b" /><g
         id="g44"><path
           class="st23"
           d="m 36.7,19.1 c 0,0 -3.5,-5.2 -11.1,-5.7 -1.9,-0.1 -4.9,-0.3 -6.5,0.7 -1.5,0.9 -1.6,1 -3.6,4.8 -2,3.8 -4,8.6 -5.8,19.5 l 0.9,0.6 0.8,0.7 0.9,-0.9 c 0,0 3.5,-8.6 7.4,-13.2 0,0 1,0.4 1.7,2 l 1.8,1 13.5,-9.5 z"
           id="path46"
           inkscape:connector-curvature="0"
           style="fill:#a3182b" /><path
           class="st23"
           d="m 36.7,19.1 c 0,0 -3.5,-5.2 -11.1,-5.7 -1.9,-0.1 -4.9,-0.3 -6.5,0.7 -1.5,0.9 -1.6,1 -3.6,4.8 -2,3.8 -4,8.6 -5.8,19.5 l 0.9,0.6 0.8,0.7 0.9,-0.9 c 0,0 3.5,-8.6 7.4,-13.2 0,0 1,0.4 1.7,2 l 1.8,1 13.5,-9.5 z"
           id="path48"
           inkscape:connector-curvature="0"
           style="fill:#a3182b" /><path
           d="M 36.6,19 C 36.3,18.6 36,18.2 35.7,17.9 35.4,17.5 35,17.2 34.7,16.9 34,16.3 33.2,15.7 32.3,15.2 31.9,15 31.4,14.7 31,14.5 30.6,14.3 30.1,14.1 29.6,14 c -0.9,-0.3 -1.9,-0.5 -2.8,-0.7 -0.2,0 -0.5,-0.1 -0.7,-0.1 l -0.7,-0.1 c -0.5,0 -1,-0.1 -1.4,-0.1 -1,0 -1.9,0 -2.9,0.1 -0.5,0.1 -1,0.2 -1.4,0.3 -0.2,0.1 -0.5,0.2 -0.7,0.3 l -0.1,0 -0.1,0 -0.2,0.1 c -0.1,0.1 -0.2,0.1 -0.3,0.2 -0.2,0.1 -0.4,0.3 -0.6,0.5 -0.2,0.2 -0.4,0.4 -0.5,0.6 -0.3,0.4 -0.5,0.8 -0.8,1.2 -0.2,0.4 -0.5,0.8 -0.7,1.3 -0.2,0.4 -0.5,0.8 -0.7,1.3 -0.4,0.8 -0.9,1.7 -1.2,2.6 -0.4,0.9 -0.7,1.8 -1,2.7 -0.2,0.5 -0.3,0.9 -0.5,1.4 -0.1,0.5 -0.3,0.9 -0.4,1.4 -0.1,0.5 -0.3,0.9 -0.4,1.4 -0.1,0.5 -0.2,0.9 -0.3,1.4 l -0.3,1.4 -0.3,1.4 c -0.2,0.9 -0.5,1.9 -0.5,2.9 0,1 -0.4,1.3 -0.4,2.2 l 0,0.5 0.1,0.1 -0.1,0 0.8,0.6 0,0 0,0 0.9,-0.2 0.8,0.2 0,0 0,0 0,-0.1 c 0.3,-0.6 0.5,-1.2 0.8,-1.7 0.1,-0.3 0.3,-0.6 0.4,-0.9 0.1,-0.3 0.3,-0.6 0.4,-0.9 0.1,-0.3 0.3,-0.6 0.4,-0.9 0.1,-0.3 0.3,-0.6 0.4,-0.9 l 0.4,-0.8 0.4,-0.8 c 0.1,-0.3 0.3,-0.6 0.5,-0.8 l 0.2,-0.4 0.2,-0.4 c 0.2,-0.3 0.3,-0.6 0.5,-0.8 l 0.5,-0.8 c 0.2,-0.3 0.3,-0.5 0.5,-0.8 l 0.3,-0.4 0.3,-0.4 0.3,-0.4 0.1,-0.2 c 0,-0.1 0.1,-0.1 0.1,-0.2 0.2,-0.2 0.3,-0.5 0.5,-0.7 0,0 0,0 0,0 0.1,0 0.2,0.1 0.2,0.1 0,0 0,0 0.1,0 0.1,0.1 0.1,0.1 0.2,0.2 0,0 0.1,0.1 0.1,0.1 0,0 0.1,0.1 0.1,0.1 0,0 0.1,0.1 0.1,0.1 l 0.1,0.1 0.1,0.1 c 0,0 0.1,0.1 0.1,0.1 0,0 0.1,0.1 0.1,0.1 l 0.1,0.1 c 0.1,0.1 0,0.2 0.1,0.3 0.1,0.1 0.1,0.2 0.1,0.3 l 0,0 0.1,0 0.1,0 1.8,1 0,0 0,0 13.7,-9.3 0,0 z m -13.4,9.3 -1.8,-1 c 0,0 0,-0.1 -0.1,-0.1 0,-0.1 0,-0.1 -0.1,-0.2 -0.1,-0.1 -0.1,-0.2 -0.2,-0.3 l -0.1,-0.1 c 0,0 -0.1,-0.1 -0.1,-0.1 -0.1,-0.1 -0.1,-0.2 -0.2,-0.3 -0.1,-0.1 -0.1,-0.2 -0.2,-0.3 0,0 -0.1,-0.1 -0.1,-0.1 0,0 -0.1,-0.1 -0.1,-0.1 C 20.1,25.6 20.1,25.6 20,25.6 19.9,25.5 19.8,25.5 19.7,25.4 19.6,25.3 19.5,25.3 19.4,25.2 19.3,25.1 19.2,25.1 19.1,25 19,25 19,24.9 18.9,24.9 c -0.1,0 -0.1,-0.1 -0.2,-0.1 -0.1,-0.1 -0.2,-0.1 -0.3,-0.2 -0.1,0 -0.2,-0.1 -0.3,-0.1 -0.1,0 -0.2,-0.1 -0.3,-0.1 -0.1,0 -0.2,-0.1 -0.3,-0.1 -0.1,0 -0.2,0 -0.3,-0.1 -0.1,0 -0.2,0 -0.2,0 -0.1,0 -0.1,0 -0.2,0 -0.1,0 -0.2,0 -0.2,0 l 0,0.1 c 0,0 0.1,0 0.2,0 0.1,0 0.1,0 0.2,0 0.1,0 0.2,0 0.2,0.1 0.1,0 0.2,0.1 0.3,0.1 0.1,0 0.2,0.1 0.3,0.1 0.1,0 0.2,0.1 0.3,0.1 0.1,0 0.2,0.1 0.3,0.1 0.1,0 0.2,0.1 0.3,0.1 0.1,0.1 0.2,0.1 0.3,0.2 0.1,0.1 0.2,0.1 0.3,0.2 0,0 0.1,0 0.1,0.1 -0.2,0.2 -0.4,0.4 -0.5,0.6 -0.1,0.1 -0.1,0.1 -0.2,0.2 l -0.1,0.2 -0.3,0.4 -0.3,0.4 -0.3,0.4 c -0.2,0.3 -0.4,0.5 -0.5,0.8 l -0.5,0.8 c -0.2,0.3 -0.3,0.5 -0.5,0.8 l -0.2,0.4 -0.2,0.4 c -0.2,0.3 -0.3,0.6 -0.5,0.8 l -0.4,0.8 -0.4,0.9 c -0.1,0.3 -0.3,0.6 -0.4,0.9 l -0.2,0.4 -0.2,0.4 c -0.1,0.3 -0.3,0.6 -0.4,0.9 -0.1,0.3 -0.3,0.6 -0.4,0.9 -0.1,0.3 -0.2,0.6 -0.4,0.9 -0.1,0.3 -0.2,0.6 -0.3,0.8 l -0.7,-0.1 0,0 0,0 -0.9,0.3 -0.6,-0.8 c 0.2,-0.9 0.2,-1.6 0.4,-2.5 0.2,-0.9 0.3,-1.9 0.5,-2.8 l 0.3,-1.4 0.3,-1.4 0.4,-1.4 c 0.1,-0.5 0.3,-0.9 0.4,-1.4 0.1,-0.5 0.3,-0.9 0.4,-1.4 0.2,-0.5 0.3,-0.9 0.5,-1.4 0.3,-0.9 0.7,-1.8 1.1,-2.7 0.4,-0.9 0.8,-1.7 1.3,-2.6 0.5,-0.8 0.9,-1.7 1.4,-2.5 0.2,-0.4 0.5,-0.8 0.7,-1.2 0.1,-0.2 0.3,-0.4 0.5,-0.5 0.2,-0.1 0.3,-0.3 0.5,-0.4 0.1,-0.1 0.2,-0.1 0.3,-0.2 l 0.2,-0.1 0.1,0 0.1,0 c 0.2,-0.1 0.4,-0.2 0.6,-0.3 0.4,-0.1 0.9,-0.2 1.4,-0.3 0.9,-0.1 1.9,-0.1 2.8,-0.1 0.5,0 0.9,0 1.4,0.1 l 0.7,0.1 0.7,0.1 c 0.9,0.1 1.9,0.4 2.7,0.7 0.9,0.3 1.8,0.7 2.6,1.1 0.8,0.5 1.6,1 2.4,1.6 0.7,0.6 1.4,1.2 2,2 l -13.5,9.3 z"
           id="path50"
           inkscape:connector-curvature="0" /><g
           id="g52"><path
             class="st8"
             d="m 22.7,27.1 c 0,0 -0.7,-0.4 -1.4,0.4 -0.7,0.8 -0.2,1.6 0.2,1.6 0,0 0.2,0 0.2,0.2 0.1,0.2 0,0.8 0.6,0.8 0,0 0.1,0.5 0.5,0.8 0.4,0.3 0.7,0.4 0.8,0.8 0.1,0.3 0.5,0.7 1.1,0.4 0.7,-0.3 1,-0.8 1.2,-1 0.2,-0.2 0.5,-0.5 0.9,-0.2 0.5,0.4 1.2,-1.1 1.4,-1.3 0.2,-0.2 0.7,-0.6 1.6,-0.2 0,0 1.4,-1.4 2.2,-1.5 0.8,0 1.1,-0.2 1.5,-0.5 0.5,-0.3 0.8,-0.1 0.8,-0.1 l 1.1,-1.2 c 0,0 0.8,0.5 1.3,0.1 0.5,-0.4 0.7,-0.7 1.1,-1.2 0.4,-0.5 1.5,-0.5 1.8,-1.2 0.3,-0.7 0.2,-0.9 -0.1,-1.3 0,0 0,-0.4 -0.3,-0.9 -0.3,-0.4 -0.6,-0.9 -0.7,-1.2 -0.1,-0.3 -0.7,-2.1 -3.1,-0.6 0,0 -0.1,0.2 -0.6,0.2 -0.5,0 -0.8,0.4 -1,0.7 -0.3,0.3 -0.9,0.1 -1.2,0.1 -0.3,0 -0.7,-0.1 -1.4,0.7 -0.7,0.9 -1.4,0.8 -1.8,0.9 -0.4,0.1 -0.7,0.5 -0.9,0.8 -0.2,0.3 -0.8,0.2 -1,0.2 -0.2,0 -0.4,0.5 -0.9,0.7 -0.4,0.1 -1.1,-0.1 -1.6,0.3 -0.5,0.4 -0.2,0.6 -0.5,0.8 -0.3,0.2 -0.8,0.3 -1,0.7 -0.3,0.4 -0.8,1.2 -0.8,1.2 z"
             id="path54"
             inkscape:connector-curvature="0"
             style="fill:#ffffff" /><path
             d="m 22.7,27.1 c -0.1,0 -0.1,-0.1 -0.2,-0.1 -0.1,0 -0.1,0 -0.2,0 -0.1,0 -0.3,0 -0.4,0.1 -0.1,0.1 -0.2,0.1 -0.3,0.2 -0.1,0 -0.1,0.1 -0.1,0.2 0,0.1 -0.1,0.1 -0.1,0.2 -0.2,0.2 -0.3,0.5 -0.2,0.8 0,0.1 0.1,0.2 0.1,0.3 0.1,0.1 0.2,0.1 0.3,0.1 l 0,0 c 0,0 0.1,0.1 0.1,0.1 0,0 0.1,0.1 0.1,0.1 0.1,0 0.1,0.1 0.1,0.2 0,0 0,0.1 0,0.1 l 0,0.1 c 0,0.1 0,0.1 0,0.2 0,0.1 0.1,0.2 0.1,0.3 0.1,0.1 0.2,0.1 0.3,0.1 l 0,0 0,0 c 0.1,0.2 0.2,0.4 0.3,0.5 0.1,0.1 0.1,0.2 0.2,0.2 0.1,0.1 0.2,0.1 0.2,0.2 0.1,0.1 0.2,0.1 0.2,0.2 0.1,0.1 0.2,0.1 0.2,0.2 0,0 0.1,0.1 0.1,0.2 0,0.1 0,0.1 0.1,0.1 0,0.1 0.1,0.2 0.2,0.2 0.2,0.1 0.4,0.1 0.5,0.1 0.1,0 0.2,0 0.3,-0.1 l 0,0 c 0,0 0,0 0,0 l 0.1,0 c 0,0 0.1,0 0.1,-0.1 0.2,-0.1 0.3,-0.2 0.5,-0.4 0.1,-0.1 0.3,-0.3 0.4,-0.5 0,0 0.1,-0.1 0.1,-0.1 l 0.1,-0.1 c 0.1,-0.1 0.2,-0.2 0.3,-0.2 0.1,0 0.3,0 0.4,0 0.1,0 0.1,0.1 0.2,0.1 0,0 0.1,0.1 0.1,0.1 0,0 0.1,0 0.2,0 0.1,0 0.1,-0.1 0.2,-0.2 0.1,-0.1 0.3,-0.3 0.4,-0.5 0.1,-0.2 0.2,-0.3 0.4,-0.5 0,0 0.1,-0.1 0.1,-0.1 0,0 0.1,-0.1 0.1,-0.1 0.1,-0.1 0.2,-0.1 0.3,-0.2 C 28.8,29 29,29 29.3,29 c 0.2,0 0.4,0.1 0.6,0.2 l 0,0 -0.1,0 C 29.9,29.1 29.9,29 30,29 c 0.1,-0.1 0.2,-0.2 0.2,-0.2 0.2,-0.2 0.3,-0.3 0.5,-0.4 0.2,-0.1 0.4,-0.3 0.6,-0.4 0.1,-0.1 0.2,-0.1 0.3,-0.1 0.1,0 0.2,-0.1 0.3,-0.1 0.1,0 0.1,0 0.2,0 0.1,0 0.1,0 0.2,0 0.1,0 0.2,0 0.3,0 0.2,0 0.4,-0.1 0.6,-0.2 0.1,0 0.2,-0.1 0.3,-0.2 0.1,-0.1 0.2,-0.1 0.3,-0.2 0.1,0 0.2,-0.1 0.3,-0.1 0.1,0 0.2,0 0.3,0.1 l 0,0 -0.1,0 c 0.1,-0.1 0.1,-0.2 0.2,-0.4 0,-0.1 0.1,-0.1 0.1,-0.2 0,-0.1 0.1,-0.1 0.1,-0.2 0.1,-0.1 0.2,-0.2 0.3,-0.3 0,0 0.1,-0.1 0.2,-0.1 0.1,0 0.1,-0.1 0.2,-0.1 l 0,0 0,0 0.1,0 c 0.3,0.1 0.5,0.1 0.8,0.1 0.1,0 0.2,0 0.3,-0.1 0,0 0.1,-0.1 0.2,-0.1 0.1,0 0.1,-0.1 0.2,-0.1 0.2,-0.2 0.4,-0.4 0.5,-0.6 0.1,-0.1 0.2,-0.2 0.2,-0.3 l 0.1,-0.1 0,0 0,0 c 0.1,-0.1 0.1,-0.1 0.2,-0.2 0.1,-0.1 0.3,-0.2 0.4,-0.2 0.1,-0.1 0.3,-0.1 0.4,-0.1 0.1,0 0.3,-0.1 0.4,-0.1 0.1,-0.1 0.2,-0.1 0.3,-0.2 0,0 0.1,-0.1 0.1,-0.1 0,0 0.1,-0.1 0.1,-0.2 0.1,-0.1 0.1,-0.2 0.1,-0.4 0,-0.1 0,-0.2 0,-0.4 0,-0.1 -0.1,-0.2 -0.2,-0.3 l 0,0 0,0 0,0 c 0,-0.1 0,-0.2 -0.1,-0.4 0,-0.1 -0.1,-0.2 -0.2,-0.3 C 39.2,21.7 39.1,21.6 39.1,21.5 39,21.4 38.9,21.3 38.9,21.2 38.8,21.1 38.8,21 38.7,20.8 38.6,20.7 38.6,20.6 38.6,20.4 38.6,20.3 38.5,20.2 38.5,20.1 38.4,20 38.4,19.9 38.3,19.8 38.1,19.6 38,19.5 37.7,19.4 c -0.1,0 -0.2,-0.1 -0.4,-0.1 -0.1,0 -0.2,0 -0.4,0 -0.1,0 -0.2,0 -0.4,0.1 -0.1,0 -0.2,0.1 -0.4,0.1 -0.1,0.1 -0.2,0.1 -0.3,0.2 -0.1,0.1 -0.2,0.1 -0.3,0.2 l 0,0 0,0 c 0,0 0,0.1 0,0.1 0,0 0,0 -0.1,0.1 0,0 -0.1,0.1 -0.1,0.1 -0.1,0 -0.2,0.1 -0.3,0.1 0,0 -0.1,0 -0.1,0 l -0.1,0 c -0.1,0 -0.2,0 -0.2,0.1 -0.1,0.1 -0.3,0.1 -0.4,0.3 -0.1,0.1 -0.2,0.2 -0.3,0.4 -0.1,0.1 -0.2,0.1 -0.3,0.1 -0.1,0 -0.2,0 -0.3,0 -0.2,0 -0.3,0 -0.5,-0.1 -0.1,0 -0.2,0 -0.2,0 0,0 -0.1,0 -0.1,0 l -0.1,0 c -0.1,0 -0.2,0 -0.2,0 -0.1,0 -0.1,0 -0.2,0.1 -0.1,0.1 -0.3,0.2 -0.4,0.3 -0.1,0.1 -0.1,0.1 -0.2,0.2 l -0.2,0.2 c -0.1,0.1 -0.2,0.2 -0.4,0.4 -0.1,0.1 -0.3,0.2 -0.4,0.3 -0.2,0.1 -0.3,0.1 -0.5,0.2 -0.2,0 -0.3,0 -0.5,0.1 -0.3,0 -0.6,0.3 -0.7,0.5 0,0.1 -0.1,0.1 -0.1,0.2 l 0,0.1 0,0 0,0 c 0,0.1 -0.1,0.1 -0.1,0.1 -0.1,0.1 -0.2,0.1 -0.3,0.1 -0.1,0 -0.2,0 -0.3,0 -0.1,0 -0.4,0.1 -0.4,0.1 -0.1,0 -0.1,0 -0.2,0.1 -0.1,0.1 -0.1,0.1 -0.2,0.2 -0.1,0.1 -0.3,0.2 -0.4,0.3 -0.1,0 -0.2,0.1 -0.3,0.1 -0.1,0 -0.2,0 -0.3,0 -0.3,0 -0.7,0 -0.9,0.1 -0.1,0 -0.1,0.1 -0.2,0.1 -0.1,0 -0.1,0.1 -0.2,0.2 -0.1,0.1 -0.1,0.1 -0.1,0.2 0,0.1 0,0.1 0,0.2 0,0 0,0.1 -0.1,0.1 0,0 -0.1,0.1 -0.1,0.1 -0.1,0 -0.2,0.1 -0.2,0.1 -0.2,0.1 -0.3,0.1 -0.4,0.2 -0.1,0.1 -0.2,0.2 -0.3,0.3 0,0.1 -0.1,0.1 -0.1,0.2 0,0.1 -0.1,0.1 -0.1,0.2 -0.3,-0.1 -0.5,0.1 -0.7,0.4 l 0,0 0,0 z m 0,-0.1 c 0.2,-0.3 0.4,-0.5 0.5,-0.8 0,-0.1 0.1,-0.1 0.1,-0.2 0,-0.1 0.1,-0.1 0.1,-0.2 0.1,-0.2 0.2,-0.3 0.3,-0.4 0.1,-0.1 0.3,-0.2 0.4,-0.2 0.1,0 0.1,-0.1 0.2,-0.1 0.1,0 0.1,-0.1 0.1,-0.1 0,-0.1 0,-0.2 0,-0.2 0,-0.1 0.1,-0.2 0.1,-0.2 0.1,-0.1 0.1,-0.1 0.2,-0.2 0.1,-0.1 0.1,-0.1 0.2,-0.1 0.3,-0.1 0.7,-0.1 1,-0.1 0.1,0 0.2,0 0.2,0 0.1,0 0.1,0 0.2,-0.1 0.1,-0.1 0.3,-0.2 0.4,-0.3 0.1,-0.1 0.1,-0.1 0.2,-0.2 0.1,-0.1 0.1,-0.1 0.5,-0.3 0.1,0 0.2,0 0.3,0 0.2,0 0.3,0 0.4,0 0,0 0,0 0.1,0 l 0,0 0,0 0,-0.1 c 0,-0.1 0.1,-0.1 0.1,-0.2 0.1,-0.1 0.2,-0.3 0.4,-0.4 0.1,-0.1 0.1,-0.1 0.2,-0.1 0,0 0.1,0 0.1,0 l 0.1,0 0.1,0 c 0.2,0 0.3,0 0.5,-0.1 0.2,0 0.3,-0.1 0.5,-0.1 0.1,-0.1 0.3,-0.1 0.4,-0.2 0.1,-0.1 0.2,-0.2 0.3,-0.3 l 0.2,-0.2 c 0.1,-0.1 0.1,-0.1 0.2,-0.2 0.1,-0.1 0.3,-0.2 0.4,-0.3 0.1,0 0.2,-0.1 0.3,-0.1 0.1,0 0.2,0 0.3,0 0,0 0.1,0 0.1,0 0,0 0.1,0 0.1,0 0.1,0 0.1,0 0.2,0 0.2,0 0.3,0 0.5,0 0.2,0 0.3,0 0.4,-0.1 0.1,-0.1 0.2,-0.3 0.3,-0.4 0.1,-0.1 0.3,-0.2 0.4,-0.3 0.1,0 0.2,0 0.3,-0.1 l 0.1,0 c 0,0 0.1,0 0.1,0 0.1,0 0.2,0 0.2,-0.1 0,0 0.1,0 0.1,-0.1 0,0 0,0 0,0 0,0 0,0 0,0 l 0,0 0,0 c 0.1,-0.1 0.2,-0.1 0.3,-0.2 0.1,-0.1 0.2,-0.1 0.3,-0.2 0.1,-0.1 0.2,-0.1 0.4,-0.2 0.1,0 0.3,-0.1 0.4,-0.1 0.1,0 0.3,0 0.4,0 0.1,0 0.3,0 0.4,0.1 0.1,0 0.3,0.1 0.4,0.2 0.1,0.1 0.2,0.2 0.3,0.3 0.1,0.1 0.2,0.2 0.2,0.3 0.1,0.1 0.1,0.3 0.1,0.4 0,0.1 0.1,0.2 0.1,0.3 0.1,0.1 0.1,0.2 0.2,0.3 0.1,0.1 0.1,0.2 0.2,0.3 0.1,0.1 0.2,0.2 0.2,0.3 0.1,0.1 0.1,0.2 0.2,0.4 0,0.1 0.1,0.3 0,0.4 l 0,0 0,0 c 0.1,0.1 0.2,0.2 0.3,0.4 0.5,-0.1 0.5,0.1 0.5,0.2 0,0.1 -0.1,0.3 -0.1,0.4 0,0.1 0,0.1 -0.1,0.2 0,0.1 -0.1,0.1 -0.1,0.2 -0.1,0.1 -0.2,0.2 -0.4,0.3 -0.1,0.1 -0.3,0.1 -0.4,0.2 -0.3,0.1 -0.5,0.2 -0.7,0.3 0,0 -0.1,0.1 -0.1,0.1 l 0,0 0,0 -0.2,0.2 c -0.1,0.1 -0.2,0.2 -0.2,0.3 -0.2,0.2 -0.4,0.4 -0.6,0.6 -0.1,0 -0.1,0.1 -0.2,0.1 -0.1,0 -0.1,0.1 -0.2,0.1 -0.1,0.1 -0.3,0.1 -0.5,0.1 -0.2,0 -0.3,0 -0.4,-0.1 C 35.7,26 35.5,26 35.4,25.9 l 0.1,0 0,0 c 0,0.1 -0.1,0.1 -0.1,0.2 0,0.1 -0.1,0.1 -0.1,0.2 -0.1,0.1 -0.2,0.2 -0.3,0.3 0,0.1 -0.1,0.1 -0.1,0.1 0,0 -0.1,0.1 -0.1,0.1 -0.1,0.1 -0.2,0.2 -0.3,0.3 l -0.1,0 0,0 0,0 c -0.1,0 -0.2,-0.1 -0.3,0 -0.1,0 -0.2,0 -0.3,0.1 -0.1,0 -0.2,0.1 -0.3,0.2 -0.1,0.1 -0.2,0.1 -0.3,0.2 -0.1,0.1 -0.2,0.1 -0.3,0.1 -0.1,0 -0.2,0.1 -0.3,0.1 -0.1,0 -0.2,0 -0.3,0 -0.1,0 -0.1,0 -0.2,0 -0.1,0 -0.1,0 -0.2,0 -0.2,0 -0.4,0.1 -0.6,0.2 -0.2,0.1 -0.4,0.2 -0.5,0.4 -0.3,0.3 -0.7,0.5 -1,0.8 l 0,0 0,0 0,0 c -0.2,-0.1 -0.4,-0.1 -0.6,-0.1 -0.2,0 -0.4,0 -0.5,0.1 -0.1,0 -0.2,0.1 -0.2,0.2 0,0 -0.1,0.1 -0.1,0.1 0,0 -0.1,0.1 -0.1,0.1 l -0.4,0.5 c -0.1,0.2 -0.3,0.3 -0.4,0.5 -0.1,0.1 -0.2,0.2 -0.3,0.2 -0.1,0 -0.1,0.1 -0.2,0.1 -0.1,0 -0.2,0 -0.2,0 -0.1,0 -0.1,-0.1 -0.1,-0.1 0,0 -0.1,0 -0.1,-0.1 -0.1,0 -0.1,0 -0.2,0 -0.1,0 -0.1,0.1 -0.2,0.1 L 26,31.1 c 0,0 -0.1,0.1 -0.1,0.1 -0.1,0.1 -0.3,0.3 -0.4,0.5 -0.2,0.2 -0.3,0.3 -0.5,0.4 0,0 -0.1,0.1 -0.1,0.1 l -0.1,0 c 0,0 0,0 0,0 l 0,0 c -0.1,0 -0.2,0.1 -0.3,0.1 -0.1,0 -0.2,0 -0.4,0 -0.1,0 -0.2,-0.1 -0.3,-0.2 -0.1,-0.1 -0.2,-0.2 -0.2,-0.3 0,-0.1 0,-0.1 -0.1,-0.1 0,0 0,-0.1 -0.1,-0.1 C 23.3,31.5 23.1,31.3 23,31.2 22.9,31.1 22.8,31.1 22.8,31 22.7,30.9 22.7,30.8 22.6,30.7 22.5,30.5 22.4,30.3 22.3,30.1 l 0,0 0.1,0 c -0.1,0 -0.1,0 -0.2,0 C 22,30 22,30 21.9,30 c -0.1,-0.1 -0.2,-0.2 -0.2,-0.3 0,-0.1 0,-0.1 0,-0.2 l 0,-0.1 c 0,0 0,-0.1 0,-0.1 0,0 0,-0.1 -0.1,-0.1 0,0 0,-0.2 -0.1,-0.2 0,0 0,-0.2 -0.1,-0.2 l -0.4,0 0,0.2 c 0,0 -0.2,0 -0.3,-0.1 -0.1,-0.1 -0.1,-0.2 -0.1,-0.4 0,-0.2 0,-0.3 0.1,-0.4 0,-0.1 0.1,-0.3 0.2,-0.4 0,-0.1 0.1,-0.1 0.1,-0.2 0,-0.1 0.1,-0.1 0.2,-0.2 0.1,-0.1 0.2,-0.2 0.4,-0.3 0.1,-0.1 0.3,-0.1 0.5,-0.1 0.1,0 0.2,0 0.2,0 0.2,0 0.3,0.1 0.4,0.1 z"
             id="path56"
             inkscape:connector-curvature="0" /></g><g
           id="g58"><path
             class="st8"
             d="m 9.8,38.3 c 0,0 -1.5,-0.2 -1.4,1.1 0,0 -1.4,0.9 -1.7,2.2 0,0 -0.9,1.4 -0.6,2.1 0.3,0.7 0.5,1.5 1.3,1.7 0,0 1.1,1.4 1.6,1.4 0.5,0 1.2,0.3 1.7,0.1 0.5,-0.3 0.8,-0.7 1.3,-0.7 0.5,0 1,-0.1 1.4,-1.4 0,0 0.6,-0.3 0.7,-0.7 0.2,-0.4 0.1,-0.9 0.4,-1.3 0.3,-0.4 0.3,-0.8 0.1,-1.2 -0.2,-0.3 -0.3,-0.3 -0.3,-0.9 0,-0.6 -0.5,-0.6 -0.8,-0.6 -0.3,0 -0.7,-0.1 -0.7,-0.6 0,-0.5 0.1,-1 -1.2,-1 0,0 -0.6,0.4 -1.3,0 -0.2,0 -0.3,-0.2 -0.5,-0.2 z"
             id="path60"
             inkscape:connector-curvature="0"
             style="fill:#ffffff" /><path
             d="m 9.7,38.3 c -0.1,0 -0.2,0 -0.3,0 -0.1,0 -0.2,0 -0.3,0 -0.2,0 -0.3,0.1 -0.5,0.2 0,0 -0.1,0 -0.1,0.1 0,0 -0.1,0.1 -0.1,0.1 0,0 -0.1,0.1 -0.1,0.1 0,0 0,0.1 -0.1,0.1 0,0 0,0.1 0,0.1 0,0 -0.1,0.3 -0.1,0.3 l 0,0.1 C 8,39.5 8,39.5 7.9,39.6 c -0.1,0.1 -0.2,0.1 -0.2,0.2 0,0 -0.1,0.1 -0.1,0.1 0,0 -0.1,0.1 -0.1,0.1 0,0 -0.1,0.1 -0.1,0.1 0,0 -0.1,0.1 -0.1,0.1 l -0.1,0.1 c 0,0 -0.1,0.1 -0.1,0.1 0,0 -0.1,0.1 -0.1,0.1 0,0 -0.1,0.1 -0.1,0.1 l -0.1,0.2 c 0,0.1 0,0.1 -0.1,0.2 0,0.1 0,0.1 -0.1,0.2 l -0.1,0.2 0,0 0,0 c -0.2,0.3 -0.4,0.7 -0.5,1 l 0,0.1 0,0.1 c 0,0 0,0.1 0,0.1 0,0 0,0.1 0,0.1 0,0 0,0.1 0,0.1 l 0,0.1 0,0.1 c 0,0 0,0.1 0,0.1 l 0.2,0.5 c 0,0.1 0.1,0.2 0.1,0.3 0,0.1 0.1,0.2 0.1,0.2 0,0 0,0.1 0.1,0.1 l 0.1,0.1 c 0,0 0.1,0.1 0.1,0.1 0,0 0.1,0.1 0.1,0.1 0,0 0.1,0.1 0.1,0.1 0,0 0.1,0 0.1,0.1 0,0 0.1,0 0.1,0 l 0.1,0 0,0 0,0 0,0 c 0.3,0.8 0.5,1 0.8,1.2 0.1,0.1 0.2,0.2 0.3,0.3 0.1,0.1 0.2,0.2 0.4,0.3 0.1,0 0.1,0.1 0.2,0.2 0,0 0,0.1 0,0.1 l 0.1,0 c 0,0 0.1,-0.1 0.1,-0.1 0.2,0 0.3,0 0.5,0 0.2,0 0.3,0 0.5,0.1 0.1,0 0.3,0 0.4,0 0,0 0.1,0 0.1,0 0,0 0,0 0,0 l 0,0 0.1,0 c 0,0 0.1,0 0.1,-0.1 l 0.1,-0.1 c 0.1,-0.1 0.2,-0.2 0.4,-0.3 0.1,-0.1 0.3,-0.2 0.5,-0.2 0,0 0.1,0 0.1,0 0,0 0.1,0 0.1,0 0.1,0 0.2,0 0.2,0 0.1,0 0.3,-0.1 0.4,-0.1 0.1,-0.1 0.2,-0.2 0.3,-0.3 0,-0.1 0.1,-0.1 0.1,-0.2 0,-0.1 0.1,-0.1 0.1,-0.2 l 0.1,-0.2 c 0,-0.1 0.1,-0.1 0.1,-0.2 l 0,-0.1 0,0 0,0 c 0.1,-0.1 0.3,-0.2 0.4,-0.3 0.1,-0.1 0.1,-0.1 0.2,-0.2 0,0 0,-0.1 0.1,-0.1 0,0 0,0 0,0 l 0,-0.1 c 0.1,-0.1 0.1,-0.3 0.1,-0.5 0,-0.2 0.1,-0.4 0.2,-0.6 0,0 0.1,-0.1 0.1,-0.1 l 0.1,-0.1 c 0,-0.1 0.1,-0.1 0.1,-0.2 0.1,-0.1 0.1,-0.3 0.1,-0.5 0,-0.1 0,-0.2 -0.1,-0.2 0,-0.1 -0.1,-0.1 -0.1,-0.2 -0.1,-0.1 -0.1,-0.1 -0.2,-0.2 0,-0.1 -0.1,-0.2 -0.1,-0.3 0,-0.1 0,-0.2 0,-0.3 0,-0.1 0,-0.2 0,-0.2 -0.1,-0.1 -0.2,-0.2 -0.3,-0.3 -0.1,0 -0.2,-0.3 -0.2,-0.3 0,0 -0.1,0 -0.1,0 l -0.1,0 c 0,0 -0.1,0.1 -0.1,0 -0.2,0 -0.4,0 -0.5,-0.2 -0.1,-0.1 -0.1,-0.1 -0.1,-0.2 l 0,0 0,0 0,0 0,-0.1 0,-0.1 c 0,-0.1 0,-0.2 0,-0.3 0,-0.1 0,-0.2 -0.1,-0.2 0,0 -0.1,-0.1 -0.1,-0.1 0,0 -0.1,0 -0.1,-0.1 -0.1,0 -0.2,0 -0.2,0 -0.2,0 -0.5,0 -0.5,0 0,0 -0.1,0 -0.1,0 0,0 -0.1,0 -0.1,0 -0.1,0 -0.2,0 -0.3,0.1 0,0 -0.1,0 -0.1,0 0,0 -0.1,0 -0.1,0 0,0 -0.1,0 -0.1,0 0,0 -0.1,0 -0.1,0 0,0 -0.1,0 -0.1,0 0,0 -0.1,0 -0.1,-0.1 0,0 -0.1,0 -0.1,-0.1 0,0 -0.1,-0.1 -0.1,-0.1 C 10.4,38.6 10.4,38.6 10.3,38.6 9.9,38.4 9.8,38.4 9.7,38.3 Z m 0.1,-0.5 c 0.1,0 0,0.1 0.2,0.3 0.1,0 0.1,0.2 0.2,0.3 0,0 0.1,0.1 0.1,0.1 0,0 0.1,0.1 0.1,0.1 0,0 0.1,0 0.1,0.1 0,0 0.1,0 0.1,0 0,0 0.1,0 0.1,0 0,0 0.1,0 0.1,0 0,0 0.1,0 0.1,0 0,0 0.1,0 0.1,0 0,0 0.1,0 0.1,0 0,0 0.1,0 0.1,0 0,0 0.1,0 0.1,-0.1 0,0 0.1,0 0.1,-0.1 l 0.3,0.1 c 0.3,0 0.5,0.1 0.6,0.1 0,0 0.1,0 0.1,0 0,0 0.1,0 0.1,0.1 0.1,0.1 0.1,0.2 0.1,0.3 0,0.1 0,0.2 0,0.3 l 0,0.1 0,0.1 0,0 0,0 0,0 c 0,0.1 0,0.2 0.1,0.2 0.1,0.1 0.2,0.1 0.4,0.1 0,0 0.1,-0.1 0.1,-0.1 l 0.1,0 c 0,0 0,0 0.1,0 0.1,0 0.2,0.1 0.3,0.2 0.1,0 0.2,0.1 0.3,0.2 0.1,0.1 0.2,0.2 0.2,0.3 0,0 0,0.1 0,0.2 0,0.1 0,0.1 0,0.1 0,0.1 0,0.2 0,0.3 0,0.1 0,0.2 0.1,0.2 0,0.1 0.1,0.1 0.1,0.2 0.1,0.1 0.1,0.1 0.2,0.2 0.1,0.1 0.1,0.2 0.1,0.3 0,0.2 0,0.4 -0.1,0.6 0,0.1 -0.1,0.2 -0.1,0.3 l 0.1,0.1 c 0,0 0,0.1 -0.1,0.1 -0.1,0.1 -0.1,0.3 -0.1,0.5 0,0.2 0,0.4 -0.1,0.6 l 0,0.1 c 0,0 0,0 0,0.1 0,0 -0.1,0.1 -0.1,0.1 -0.1,0.1 -0.1,0.1 -0.2,0.2 -0.1,0.1 -0.3,0.2 -0.5,0.3 l 0,0 0.1,-0.1 c 0,0.1 0,0.2 -0.1,0.2 0,0.1 -0.1,0.2 -0.1,0.2 -0.1,0.2 -0.1,0.3 -0.2,0.5 -0.1,0.1 -0.2,0.3 -0.4,0.4 -0.2,0.1 -0.3,0.2 -0.5,0.2 -0.1,0 -0.2,0 -0.3,0 l 0,0 0,0 -0.1,0 c 0,0 -0.1,0 -0.1,0 -0.1,0 -0.3,0.1 -0.4,0.2 -0.1,0.1 -0.3,0.2 -0.4,0.3 L 10.9,47 c 0,0 -0.1,0 -0.1,0.1 -0.1,0 -0.2,0.1 -0.2,0.1 -0.2,0 -0.4,0 -0.5,0 C 9.9,47.2 9.8,47.1 9.6,47.1 9.4,47.1 9.3,47 9.1,47 9.1,47 9,47 9,47 l -0.1,0 c 0,0 -0.1,0 -0.1,0 C 8.7,47 8.6,46.9 8.5,46.9 8.3,46.8 8.2,46.7 8.1,46.6 8,46.5 7.9,46.4 7.8,46.3 7.6,46.1 7.4,45.8 7.2,45.5 l 0,0 0,0 -0.1,0 c 0,0 -0.1,0 -0.1,0 0,0 -0.1,0 -0.1,-0.1 0,0 -0.1,-0.1 -0.1,-0.1 0,0 -0.1,-0.1 -0.1,-0.1 0,0 -0.1,-0.1 -0.1,-0.1 0,0 -0.1,-0.1 -0.1,-0.1 0,0 -0.1,-0.1 -0.1,-0.1 0,-0.1 -0.1,-0.2 -0.1,-0.3 0,-0.1 -0.1,-0.2 -0.1,-0.3 L 6,43.8 c 0,0 0,-0.1 0,-0.1 l 0,-0.1 0,-0.1 c 0,0 0,-0.1 0,-0.1 0,0 0,-0.1 0,-0.1 0,0 0,-0.1 0,-0.1 L 6,43.1 6,43 C 6.1,42.8 6.1,42.6 6.2,42.5 6.3,42.3 6.4,42.2 6.5,42 l 0,0 0.1,-0.2 c 0,-0.1 0,-0.1 0.1,-0.2 0,-0.1 0,-0.1 0.1,-0.2 L 6.9,41.2 C 6.9,41.1 7,41.1 7,41 c 0,-0.1 0.1,-0.1 0.1,-0.1 0,0 0.1,-0.1 0.1,-0.1 l 0.1,-0.1 c 0,0 0.1,-0.1 0.1,-0.1 0,0 0.1,-0.1 0.1,-0.1 0,0 0.1,-0.1 0.1,-0.1 0,0 0.1,-0.1 0.1,-0.1 0.1,-0.1 0.2,-0.2 0.3,-0.2 0.1,-0.1 0.3,-0.3 0.3,-0.4 0,0 0,-0.1 0,-0.1 0,0 0,-0.1 0,-0.1 0,0 0,-0.1 0.1,-0.1 0,0 0.1,-0.1 0.1,-0.1 0,0 0.1,-0.1 0.1,-0.1 0,0 0.1,-0.1 0.1,-0.1 C 8.9,39 9,39 9.2,38.9 c 0.1,0 0.5,0 0.5,-0.2 0.1,-0.7 0.1,-0.8 0.1,-0.9 l 0,0 0,0 z"
             id="path62"
             inkscape:connector-curvature="0" /></g></g></g></g></svg>