<svg id="Ebene_1" data-name="Ebene 1" xmlns="http://www.w3.org/2000/svg" width="200" height="150" viewBox="0 0 200 150"><defs><style>.cls-1{fill:#fff;}.cls-2{fill:#1d1d1b;}.cls-3{fill:#c8c8c8;}.cls-4{fill:#e6cad4;}</style></defs><title>gonimo-logo</title><path class="cls-1" d="M115.2,82C101.44,87.51,85.68,80.57,80,66.47s0.88-30,14.65-35.56a26.66,26.66,0,0,1,25,2.84,32.27,32.27,0,1,0,11.69,28.4A26.67,26.67,0,0,1,115.2,82Z"/><path class="cls-2" d="M114.92,81.51A27,27,0,0,1,80.52,66.9C75,54,80.49,38.37,93.17,32.15a26.69,26.69,0,0,1,26.55,2c0.49,0.33.29-.61,0.05-0.8A32.5,32.5,0,0,0,66.82,55,33.34,33.34,0,0,0,78.25,83.66a32.51,32.51,0,0,0,53.51-21.2c0-.33-0.64-1.16-0.74-0.63a26.91,26.91,0,0,1-16.09,19.69c-0.35.15,0.17,1.08,0.57,0.91a27.29,27.29,0,0,0,16.27-20L131,61.83A32.08,32.08,0,0,1,82.79,86.07,31.72,31.72,0,0,1,67.38,58.73a32.06,32.06,0,0,1,52.24-24.62l0.05-.8a27.29,27.29,0,0,0-24.74-3.08A26.81,26.81,0,0,0,79.79,44.86C74.16,58.21,80,74.3,92.74,81.11a27.18,27.18,0,0,0,22.75,1.32C115.84,82.29,115.32,81.36,114.92,81.51Z"/><path class="cls-3" d="M85.75,53.31a22.49,22.49,0,0,0-4.92,15.26c0.6,9,4,10.7,9.1,13.51,0,0,2.54,4.74,7.39,4.8,2.21,0,4.82-1.28,5.55-2.4,0,0,2.42,1.93,3.87,1.8a7.62,7.62,0,0,0,5.94-3.22,1.36,1.36,0,0,0,2.38-.47s1,1.61,2.11.74A3.33,3.33,0,0,0,118.43,81s0.67,1.2,1,1.14,1.71-.1,2-3-3.75-3.11-4.12-3a17.66,17.66,0,0,0,.5-8.53,2.12,2.12,0,0,0,2.68-1.74,61,61,0,0,0,.17-12.75c-0.54-3.51-1.87-10.3-5.45-12.14s-7-3.21-8.73-2.71-2.84,1.71-4.08,3.55S99.1,46,98.76,48.26a15.68,15.68,0,0,0-5.25-.2s-2.64-11.94-8.4-18.17-10.77-9.5-13.85-9.37-3.08,2.07-3,2.68,2.48,11,6,17.4,4.42,7.63,5.42,8.7S84.84,53.58,85.75,53.31Z"/><path class="cls-2" d="M89.87,65a4.19,4.19,0,0,0-4.57-1,4.57,4.57,0,0,0-1.38.78c-0.28.25-.18,0,0.07,0H83.21a0.5,0.5,0,0,0,0,1,2.1,2.1,0,0,0,1.51-.39,3.32,3.32,0,0,1,4.44.29A0.5,0.5,0,0,0,89.87,65h0Z"/><path class="cls-2" d="M105.28,62.6a3.49,3.49,0,0,1,2.24-1.41c1.13-.17,1.84.42,2.77,0.91a2.44,2.44,0,0,0,1.33.21,0.5,0.5,0,0,0,0-1,1.65,1.65,0,0,1-1-.22,10.46,10.46,0,0,0-1.35-.71,4,4,0,0,0-2.46-.06,4.7,4.7,0,0,0-2.38,1.77c-0.37.53,0.5,1,.87,0.51h0Z"/><circle class="cls-2" cx="95.82" cy="79.05" r="0.27"/><circle class="cls-2" cx="95.35" cy="81.06" r="0.27"/><circle class="cls-2" cx="96.49" cy="82.63" r="0.27"/><circle class="cls-2" cx="107.73" cy="78.07" r="0.27"/><circle class="cls-2" cx="108.46" cy="79.48" r="0.27"/><circle class="cls-2" cx="107.46" cy="81.22" r="0.27"/><path class="cls-2" d="M106.46,121.68c0,0.42,0,.88,0,1.59v3.35a3.32,3.32,0,0,1-.82,2.64,3.06,3.06,0,0,1-2.1.69,3.73,3.73,0,0,1-1.92-.48l0.26-.8a3.25,3.25,0,0,0,1.69.45,1.74,1.74,0,0,0,1.86-2v-0.64h0a2.06,2.06,0,0,1-1.84,1,2.58,2.58,0,0,1-2.46-2.81,2.77,2.77,0,0,1,2.6-3.07,1.92,1.92,0,0,1,1.8,1h0l0-.87h0.92ZM105.38,124a1.49,1.49,0,0,0-.06-0.48,1.51,1.51,0,0,0-1.47-1.11c-1,0-1.72.85-1.72,2.18a1.81,1.81,0,0,0,1.71,2.08,1.54,1.54,0,0,0,1.46-1.07,1.84,1.84,0,0,0,.08-0.56v-1Z"/><path class="cls-2" d="M113.3,124.52a2.82,2.82,0,0,1-2.87,3.07,2.74,2.74,0,0,1-2.77-3,2.82,2.82,0,0,1,2.86-3.07A2.73,2.73,0,0,1,113.3,124.52Zm-4.58.06a1.8,1.8,0,1,0,3.51,0c0-1-.49-2.22-1.73-2.22S108.72,123.48,108.72,124.58Z"/><path class="cls-2" d="M119.83,124.52a2.82,2.82,0,0,1-2.87,3.07,2.74,2.74,0,0,1-2.77-3,2.82,2.82,0,0,1,2.86-3.07A2.73,2.73,0,0,1,119.83,124.52Zm-4.58.06a1.8,1.8,0,1,0,3.51,0c0-1-.49-2.22-1.73-2.22S115.25,123.48,115.25,124.58Z"/><path class="cls-2" d="M126.14,119v7c0,0.51,0,1.1,0,1.49h-0.94l0-1h0a2.13,2.13,0,0,1-2,1.13c-1.4,0-2.47-1.18-2.47-2.93,0-1.92,1.18-3.1,2.59-3.1a1.93,1.93,0,0,1,1.74.88h0V119h1Zm-1,5a1.85,1.85,0,0,0,0-.44,1.54,1.54,0,0,0-1.51-1.22c-1.09,0-1.73,1-1.73,2.23s0.57,2.14,1.71,2.14a1.58,1.58,0,0,0,1.54-1.25,1.82,1.82,0,0,0,0-.45v-1Z"/><path class="cls-2" d="M130.41,123.24c0-.6,0-1.09,0-1.56h0.93l0.06,1h0a2.12,2.12,0,0,1,1.91-1.09c0.8,0,2,.48,2,2.46v3.45h-1.05v-3.33c0-.93-0.35-1.71-1.34-1.71a1.54,1.54,0,0,0-1.48,1.56v3.47h-1.05v-4.21Z"/><path class="cls-2" d="M138.06,120.05a0.65,0.65,0,0,1-1.3,0,0.64,0.64,0,0,1,.66-0.66A0.62,0.62,0,0,1,138.06,120.05Zm-1.17,7.4v-5.77h1.05v5.77h-1.05Z"/><path class="cls-2" d="M144.53,121.68c0,0.42,0,.88,0,1.59v3.35a3.32,3.32,0,0,1-.82,2.64,3.06,3.06,0,0,1-2.1.69,3.73,3.73,0,0,1-1.92-.48l0.26-.8a3.25,3.25,0,0,0,1.69.45,1.74,1.74,0,0,0,1.86-2v-0.64h0a2.06,2.06,0,0,1-1.84,1,2.58,2.58,0,0,1-2.46-2.81,2.77,2.77,0,0,1,2.6-3.07,1.92,1.92,0,0,1,1.8,1h0l0-.87h0.92ZM143.45,124a1.49,1.49,0,0,0-.06-0.48,1.51,1.51,0,0,0-1.47-1.11c-1,0-1.72.85-1.72,2.18a1.81,1.81,0,0,0,1.71,2.08,1.53,1.53,0,0,0,1.45-1.07,1.82,1.82,0,0,0,.08-0.56v-1Z"/><path class="cls-2" d="M146.09,119h1.05v3.6h0a2,2,0,0,1,.75-0.74,2.16,2.16,0,0,1,1.07-.3c0.78,0,2,.48,2,2.47v3.44H150v-3.32c0-.93-0.35-1.72-1.34-1.72a1.51,1.51,0,0,0-1.41,1,1.27,1.27,0,0,0-.07.5v3.48h-1.05V119Z"/><path class="cls-2" d="M153.77,120v1.66h1.5v0.8h-1.5v3.11c0,0.72.2,1.12,0.79,1.12a2.32,2.32,0,0,0,.61-0.07l0,0.79a2.57,2.57,0,0,1-.93.14,1.46,1.46,0,0,1-1.13-.44,2.14,2.14,0,0,1-.41-1.5v-3.15h-0.89v-0.8h0.89v-1.38Z"/><path class="cls-2" d="M159,123.24c0-.6,0-1.09,0-1.56h0.92l0,0.93h0a2,2,0,0,1,1.81-1.06,1.71,1.71,0,0,1,1.63,1.16h0a2.37,2.37,0,0,1,.64-0.75,2,2,0,0,1,1.28-.41c0.76,0,1.9.5,1.9,2.51v3.4h-1v-3.27c0-1.11-.41-1.78-1.25-1.78a1.36,1.36,0,0,0-1.24,1,1.72,1.72,0,0,0-.08.52v3.57h-1V124a1.33,1.33,0,0,0-1.2-1.59A1.57,1.57,0,0,0,160,124v3.48h-1v-4.21Z"/><path class="cls-2" d="M174.08,124.52a2.82,2.82,0,0,1-2.87,3.07,2.74,2.74,0,0,1-2.77-3,2.82,2.82,0,0,1,2.86-3.07A2.73,2.73,0,0,1,174.08,124.52Zm-4.58.06a1.8,1.8,0,1,0,3.51,0c0-1-.49-2.22-1.73-2.22S169.5,123.48,169.5,124.58Z"/><path class="cls-2" d="M175.32,123.24c0-.6,0-1.09,0-1.56h0.93l0.06,1h0a2.12,2.12,0,0,1,1.91-1.09c0.8,0,2,.48,2,2.46v3.45h-1.05v-3.33c0-.93-0.35-1.71-1.34-1.71a1.54,1.54,0,0,0-1.48,1.56v3.47h-1.05v-4.21Z"/><path class="cls-2" d="M183,120.05a0.65,0.65,0,0,1-1.3,0,0.64,0.64,0,0,1,.66-0.66A0.62,0.62,0,0,1,183,120.05Zm-1.17,7.4v-5.77h1.05v5.77H181.8Z"/><path class="cls-2" d="M185.74,120v1.66h1.5v0.8h-1.5v3.11c0,0.72.2,1.12,0.79,1.12a2.32,2.32,0,0,0,.61-0.07l0,0.79a2.57,2.57,0,0,1-.93.14,1.46,1.46,0,0,1-1.13-.44,2.14,2.14,0,0,1-.41-1.5v-3.15h-0.89v-0.8h0.89v-1.38Z"/><path class="cls-2" d="M193.43,124.52a2.82,2.82,0,0,1-2.87,3.07,2.74,2.74,0,0,1-2.77-3,2.82,2.82,0,0,1,2.86-3.07A2.73,2.73,0,0,1,193.43,124.52Zm-4.58.06a1.8,1.8,0,1,0,3.51,0c0-1-.49-2.22-1.73-2.22S188.85,123.48,188.85,124.58Z"/><path class="cls-2" d="M194.68,123.48c0-.68,0-1.26,0-1.8h0.92l0,1.13h0a1.73,1.73,0,0,1,1.6-1.26,1.14,1.14,0,0,1,.3,0v1a1.58,1.58,0,0,0-.36,0,1.47,1.47,0,0,0-1.41,1.35,3,3,0,0,0,0,.49v3.08h-1v-4Z"/><path class="cls-2" d="M197.68,126.83a0.71,0.71,0,0,1,.72-0.75A0.75,0.75,0,1,1,197.68,126.83Z"/><path class="cls-4" d="M98.6,78.26a10.12,10.12,0,0,0,.48,1.52,23.23,23.23,0,0,0,3.13,1.09s2.58-1.63,2.72-2.09a4.36,4.36,0,0,0-.42-1.56,4.08,4.08,0,0,0-3.61-1.29A2.3,2.3,0,0,0,98.6,78.26Z"/><path class="cls-4" d="M87,52.85a7.06,7.06,0,0,1,2.94-2.48,17.67,17.67,0,0,1-1.25-3.6c-0.54-2.24-3.9-12.46-8.49-17.77s-5.72-6-9.74-6.38c0,0,.56,7.09,2.5,10.81s3.94,10.1,6.23,12.67A73.62,73.62,0,0,0,87,52.85Z"/><path class="cls-2" d="M90.4,50.24c-1.34-1.8-1.36-4.59-2.09-6.71a60.13,60.13,0,0,0-3.8-8.65c-2.78-5.23-7.24-12.47-14-12.57a0.59,0.59,0,0,0-.59.31c0,6.51,3,12.8,5.79,18.58a23.77,23.77,0,0,0,5,7.17C82.54,50,84.8,51.21,86.52,53c0.22,0.22,1.14-.06.94-0.27-1.63-1.68-3.76-2.84-5.51-4.38a23.11,23.11,0,0,1-5.36-7.65C73.91,35,71,28.86,71,22.45l-0.59.31c3.33,0,6.11,2.45,8.18,4.83a42.14,42.14,0,0,1,5.8,9,56,56,0,0,1,3.23,7.81c0.62,1.95.65,4.38,1.89,6.05,0.18,0.24,1.13,0,.94-0.27h0Z"/><path class="cls-4" d="M100.94,47.25s7.38,2.08,8.5,3.72l-1.6-8.31-0.29-2.72s-0.72-.57-2.18.64S100.94,47.25,100.94,47.25Z"/><path class="cls-2" d="M135.86,81.58a49.41,49.41,0,0,0-14-2.52,3.24,3.24,0,0,0-.62-1.36,2.09,2.09,0,0,0-.36-0.4A4.31,4.31,0,0,0,118,76.14a17.11,17.11,0,0,0,.6-3.62,52.83,52.83,0,0,1,8.34-2.38c0.36-.08.26-0.42-0.09-0.35a53.91,53.91,0,0,0-8.23,2.34,17.4,17.4,0,0,0-.22-3.47c2.26,0.12,2.64-2.19,2.8-4.15a48.4,48.4,0,0,0-.12-11.38c-0.55-3.46-1.35-7.37-3.55-10.2-1.23-1.58-3-2.33-4.77-3.13s-3.77-1.71-5.7-1.59-3.56,1.78-4.67,3.32c-1.49,2.06-3.37,4.17-4,6.7A14.68,14.68,0,0,0,95.91,48a12.48,12.48,0,0,0-2.07.08A51,51,0,0,0,89,35.3a34,34,0,0,0-6.86-8.48c-2.46-2.31-5.28-4.71-8.52-5.84-1.74-.6-4.58-0.85-5.59,1.1-0.64,1.24,0,2.77.28,4a74.21,74.21,0,0,0,7.84,19.41,23.07,23.07,0,0,0,3.19,4.65A22.12,22.12,0,0,0,83,53a10.29,10.29,0,0,0,1.87,1.12C80.64,59.4,79.42,67,81,73.47a13.35,13.35,0,0,0,.88,2.47,80.56,80.56,0,0,0-13.69.53c-0.33,0-.45.48,0,0.43a78.75,78.75,0,0,1,14-.51,11.85,11.85,0,0,0,3,3.67,24.85,24.85,0,0,0-3,.62c-0.36.1-.25,0.52,0.11,0.42a24.18,24.18,0,0,1,3.37-.68c0.24,0.18.49,0.37,0.75,0.54,0.82,0.54,2,1,2.84,1.57-6.42,2.28-12.56,6.65-15.42,12.77-0.14.31,0.44,0.33,0.56,0.08,2.82-6,8.93-10.33,15.27-12.53L89.66,83c0.78,0.79,1.3,1.81,2.15,2.58,3,2.68,8.31,3.32,11.17.05a6.36,6.36,0,0,0,4.1,1.62,8.12,8.12,0,0,0,5.71-3,1.66,1.66,0,0,0,2.33-.35c1.31,1.35,2.85.3,3.5-1.29A1.3,1.3,0,0,0,120,83c1.27-.33,1.73-1.84,1.87-3a3.22,3.22,0,0,0,0-.7,48.78,48.78,0,0,1,13.5,2.48C135.56,81.9,136.08,81.66,135.86,81.58Zm-17.27-4.3c0.6,0.12,1.82.4,2,1.14a0.42,0.42,0,0,0,.32.33,2.22,2.22,0,0,1,0,.28,42.45,42.45,0,0,0-8.66.75,4.49,4.49,0,0,1,1.25-1.54,6.52,6.52,0,0,1,2.56.4c0.18,0.07.71-.19,0.46-0.29a7.22,7.22,0,0,0-2.49-.46A6.5,6.5,0,0,1,118.59,77.29Zm-6-1.59a26,26,0,0,1,5-2.78,16.14,16.14,0,0,1-.64,3.24,6.67,6.67,0,0,0-3.87,1.14l-0.14.11Q112.85,76.55,112.61,75.7ZM86.3,79.93a10.78,10.78,0,0,1-2.77-2.69c-0.17-.24-0.32-0.5-0.47-0.76,1.39,0.12,2.77.29,4.15,0.55,0.64,0.12,1.34.25,2,.42a13.18,13.18,0,0,0-.08,2.36A23.74,23.74,0,0,0,86.3,79.93Zm1.21,0.79-0.61-.39a22.66,22.66,0,0,1,2.29-.06,7.8,7.8,0,0,0,.36,1.6C88.91,81.44,88.17,81.12,87.51,80.72Zm19.39,5.56a6,6,0,0,1-3.76-1.64l-0.57-3.13c0.19-.1.37-0.25,0.58-0.39,0.61-.41,1.77-1,2.06-1.72,0.61-1.5-1.21-2.82-2.37-3.16-1.78-.52-4.83.26-4.56,2.65a2.65,2.65,0,0,0,.87,1.85,7.76,7.76,0,0,0,2.78.92h0l0.55,3c-1.87,2.43-5.84,2.77-8.41,1.43a11.84,11.84,0,0,1-3.6-3.42L90.4,82.6c0.81-.26,1.62-0.48,2.43-0.67,0.37-.08.25-0.51-0.11-0.42-0.8.19-1.61,0.41-2.41,0.67a7.46,7.46,0,0,1-.51-1.88c0.6,0,1.19.09,1.78,0.17,0.3,0,.59-0.39.2-0.45-0.67-.1-1.35-0.16-2-0.19a12.28,12.28,0,0,1,0-2.24,9.76,9.76,0,0,1,2.77,1.15c0.22,0.14.73-.16,0.45-0.34a10.64,10.64,0,0,0-3.17-1.28l0-.18c0.37-2.82.81-5.63,1.11-8.46a11.3,11.3,0,0,0-1.41-7.67,18.26,18.26,0,0,0-2.82-3.62c-0.11-.11-0.64.11-0.55,0.2a17.79,17.79,0,0,1,3,4c1.45,2.6,1.45,4.91,1.12,7.79-0.3,2.62-.7,5.22-1,7.84-0.55-.13-1.09-0.23-1.6-0.34A43,43,0,0,0,82.8,76c-2.13-4.16-2-9.82-.71-14.08a20.77,20.77,0,0,1,4-7.78,0.41,0.41,0,0,0,0-.53,0.46,0.46,0,0,0-.46-0.26c-0.93.11-2.37-1.15-3-1.62A20.54,20.54,0,0,1,80,49.6a17.4,17.4,0,0,1-2.41-3.34A70.61,70.61,0,0,1,70,28.75a27.9,27.9,0,0,1-1.25-5c-0.24-2.84,3.58-2.4,5.31-1.69a26.36,26.36,0,0,1,7.67,5.46,32.31,32.31,0,0,1,6.65,8.26,50.44,50.44,0,0,1,4.73,12.79,0.56,0.56,0,0,0,.54.46,16.27,16.27,0,0,1,3.82,0,12,12,0,0,1,1.26.17A40.8,40.8,0,0,1,104.2,51c0.61,0.24.66-.65,0.17-0.85a36.58,36.58,0,0,0-5-1.65c0.63-2.28,2.32-4.15,3.66-6.06,1.58-2.25,3.35-3.71,6.19-3,2.23,0.58,5.29,1.65,7,3.26a12.46,12.46,0,0,1,2.91,5.54,36.22,36.22,0,0,1,1.43,10.95c0,1.89-.1,3.79-0.27,5.68-0.13,1.44-.46,3.13-2.26,2.82a7.48,7.48,0,0,1-.95-1.28c-1-1.52-1.84-3.09-2.66-4.69a63.77,63.77,0,0,1-5.7-15.38c-0.31-1.43-.57-2.87-0.74-4.32-0.05-.42,0-1.58-0.27-1.85a1.48,1.48,0,0,0-1.07,0c-3,.83-4.79,5.23-6,7.61-0.14.28,0.49,0.22,0.58,0a21.53,21.53,0,0,1,4.1-6.38c0.32-.3,1.34-1.26,1.87-1,0.23,0.13.38,3.54,0.47,4,0.27,1.52.61,3,1,4.52a63,63,0,0,0,2.89,8.21,61.87,61.87,0,0,0,5.37,10.16,3.12,3.12,0,0,0,.49.57,0.44,0.44,0,0,0,0,.2,16.32,16.32,0,0,1,.27,4.36,27.66,27.66,0,0,0-5.19,2.78,22.07,22.07,0,0,0-6.17-9.74c-0.11-.1-0.64.12-0.55,0.2a22,22,0,0,1,6.2,9.91,18.54,18.54,0,0,0-1.89,1.59c-0.25.25,0.31,0.29,0.48,0.13a17.56,17.56,0,0,1,1.53-1.32,18.3,18.3,0,0,1,.39,1.81l-0.17.17a9.75,9.75,0,0,0-2.1.65c-0.37.16,0,.38,0.23,0.26a8.73,8.73,0,0,1,1.54-.51A5,5,0,0,0,111.2,80c-0.47.11-.94,0.22-1.4,0.34s-0.28.35,0.07,0.25,0.84-.21,1.26-0.31a3.45,3.45,0,0,0,.9,3.26A7.24,7.24,0,0,1,106.9,86.27Zm-3.11-8.7a1.56,1.56,0,0,1,.57.77c0.43,1-.19,1.35-1,1.89-0.38.26-.76,0.55-1.16,0.78l-0.08,0a3.84,3.84,0,0,0-.77-0.23,7.12,7.12,0,0,1-1.76-.6,2.32,2.32,0,0,1-.68-1.52C98.67,76.16,102.56,76.6,103.79,77.57ZM102.28,81h0Zm16.56,0.33c-0.15-.25-0.75-0.56-0.84-0.07-0.24,1.23-1.51,3.18-2.61,1.53a0.45,0.45,0,0,0-.72-0.06,1.12,1.12,0,0,1-1.68.48l0,0a2.55,2.55,0,0,1-.77-3.13,41.36,41.36,0,0,1,8.81-.74C121,80.94,119.88,83.18,118.84,81.37Z"/><path class="cls-2" d="M60.71,112.57a7.91,7.91,0,0,1-.58,3.06A7,7,0,0,1,58.5,118a7.4,7.4,0,0,1-2.55,1.57,9.32,9.32,0,0,1-3.3.56,12.09,12.09,0,0,1-3.87-.59,9.35,9.35,0,0,1-3.34-2.05l1.9-2.36a7.74,7.74,0,0,0,2.36,1.79,6.65,6.65,0,0,0,2.89.61,6.44,6.44,0,0,0,2.58-.45,4.44,4.44,0,0,0,1.63-1.17,4.2,4.2,0,0,0,.86-1.63,7.05,7.05,0,0,0,.25-1.85v-2.18H57.81a4.92,4.92,0,0,1-2.19,2,6.87,6.87,0,0,1-2.91.64,7.73,7.73,0,0,1-3-.58,7.13,7.13,0,0,1-2.38-1.59,7.23,7.23,0,0,1-1.55-2.39,7.93,7.93,0,0,1-.56-3,8.59,8.59,0,0,1,.53-3,7.41,7.41,0,0,1,1.51-2.47,6.84,6.84,0,0,1,2.36-1.65,7.81,7.81,0,0,1,3.09-.59,6.87,6.87,0,0,1,2.91.65,5.34,5.34,0,0,1,2.22,1.83h0.06V98h2.8v14.62Zm-7.65-12.38a5.06,5.06,0,0,0-2,.39,4.47,4.47,0,0,0-1.52,1.06,4.66,4.66,0,0,0-1,1.62,6,6,0,0,0-.34,2.07,5,5,0,0,0,1.31,3.59,5.32,5.32,0,0,0,7.09,0,5,5,0,0,0,1.31-3.59,6.06,6.06,0,0,0-.34-2.07,4.68,4.68,0,0,0-1-1.62,4.47,4.47,0,0,0-1.52-1.06A5.06,5.06,0,0,0,53.06,100.19Z"/><path class="cls-2" d="M64.18,105.32a7.5,7.5,0,0,1,.61-3,7.86,7.86,0,0,1,1.66-2.46,7.92,7.92,0,0,1,11.13,0,7.86,7.86,0,0,1,1.66,2.46,7.5,7.5,0,0,1,.61,3,7.67,7.67,0,0,1-2.27,5.49,7.9,7.9,0,0,1-2.49,1.65,8,8,0,0,1-8.65-1.65A7.67,7.67,0,0,1,64.18,105.32Zm3,0a6,6,0,0,0,.34,2.07,4.65,4.65,0,0,0,1,1.62A4.45,4.45,0,0,0,70,110.07a5.45,5.45,0,0,0,4,0A4.46,4.46,0,0,0,75.56,109a4.67,4.67,0,0,0,1-1.62,6.42,6.42,0,0,0,0-4.14,4.68,4.68,0,0,0-1-1.62A4.47,4.47,0,0,0,74,100.58a5.45,5.45,0,0,0-4,0,4.47,4.47,0,0,0-1.52,1.06,4.66,4.66,0,0,0-1,1.62A6,6,0,0,0,67.16,105.32Z"/><path class="cls-2" d="M83.3,98h2.8v2.27h0.06A4.13,4.13,0,0,1,88,98.31a6.08,6.08,0,0,1,3-.73,6.4,6.4,0,0,1,2,.33,4.6,4.6,0,0,1,1.71,1,4.88,4.88,0,0,1,1.17,1.76,6.72,6.72,0,0,1,.44,2.53v9.48h-2.8V104a4.92,4.92,0,0,0-.28-1.76,3.21,3.21,0,0,0-.75-1.18,2.81,2.81,0,0,0-1.07-.65,4,4,0,0,0-1.26-.2,4.57,4.57,0,0,0-1.62.28,3.37,3.37,0,0,0-1.31.89,4.18,4.18,0,0,0-.87,1.54,7,7,0,0,0-.31,2.21v7.59H83.3V98Z"/><path class="cls-2" d="M100.62,98h2.8v14.74h-2.8V98Z"/><path class="cls-2" d="M107.75,98h2.61v2.3h0.06a2.43,2.43,0,0,1,.48-0.78,5,5,0,0,1,1-.89,6.15,6.15,0,0,1,1.43-.72,5.36,5.36,0,0,1,1.82-.3,5.22,5.22,0,0,1,2.77.68,5.09,5.09,0,0,1,1.83,2.05,4.72,4.72,0,0,1,2-2.05,5.64,5.64,0,0,1,2.64-.68,6.11,6.11,0,0,1,2.8.56,4.51,4.51,0,0,1,1.71,1.48,5.64,5.64,0,0,1,.86,2.08,12.26,12.26,0,0,1,.23,2.41v8.58h-2.8v-8.21a11.69,11.69,0,0,0-.11-1.62,3.75,3.75,0,0,0-.45-1.37,2.57,2.57,0,0,0-1-.95,4,4,0,0,0-4.54.89,5.46,5.46,0,0,0-.87,3.2v8.05h-2.8V105a15.66,15.66,0,0,0-.11-1.93,4.53,4.53,0,0,0-.44-1.51,2.4,2.4,0,0,0-.93-1,3.21,3.21,0,0,0-1.63-.36,3.69,3.69,0,0,0-1.45.3,3.43,3.43,0,0,0-1.23.89,4.3,4.3,0,0,0-.84,1.51,6.74,6.74,0,0,0-.31,2.16v7.65h-2.8V98Z"/><path class="cls-2" d="M133.37,105.32a7.5,7.5,0,0,1,.61-3,7.86,7.86,0,0,1,1.66-2.46,7.92,7.92,0,0,1,11.13,0,7.86,7.86,0,0,1,1.66,2.46,7.5,7.5,0,0,1,.61,3,7.67,7.67,0,0,1-2.27,5.49,7.9,7.9,0,0,1-2.49,1.65,8,8,0,0,1-8.65-1.65A7.67,7.67,0,0,1,133.37,105.32Zm3,0a6,6,0,0,0,.34,2.07,4.65,4.65,0,0,0,1,1.62,4.45,4.45,0,0,0,1.52,1.06,5.45,5.45,0,0,0,4,0,4.46,4.46,0,0,0,1.52-1.06,4.67,4.67,0,0,0,1-1.62,6.42,6.42,0,0,0,0-4.14,4.68,4.68,0,0,0-1-1.62,4.47,4.47,0,0,0-1.52-1.06,5.45,5.45,0,0,0-4,0,4.47,4.47,0,0,0-1.52,1.06,4.66,4.66,0,0,0-1,1.62A6,6,0,0,0,136.36,105.32Z"/></svg>